/* XPM */
static char *_137945866554cc9ee91b57af11692efMRbjZR2uDjrzIqIn[] = {
/* columns rows colors chars-per-pixel */
"64 64 56 1 ",
"  c None",
". c #EA1E22",
"X c #EB1F22",
"o c #EA1E23",
"O c #EB1E23",
"+ c #EA1F23",
"@ c #EB1F23",
"# c #EC1E23",
"$ c #EC1F23",
"% c #EB1F24",
"& c #EC1F24",
"* c #E72223",
"= c #E62323",
"- c #E92023",
"; c #E92123",
": c #EA2023",
"> c #EB2023",
", c #EA2024",
"< c #EB2024",
"1 c #EB2125",
"2 c #EC2428",
"3 c #EC272B",
"4 c #EC2A2E",
"5 c #ED3337",
"6 c #ED383C",
"7 c #ED393D",
"8 c #9D5F24",
"9 c #9D5F25",
"0 c #9E5F24",
"q c #9E5E25",
"w c #9E5F25",
"e c #9F5F25",
"r c #9E5F26",
"t c #9F5F26",
"y c #B74A24",
"u c #B64B25",
"i c #B34D25",
"p c #B54C25",
"a c #B84924",
"s c #AD5325",
"d c #9E6024",
"f c #9E6025",
"g c #9D6026",
"h c #EF484B",
"j c #F37B7E",
"k c #F48183",
"l c #F48587",
"z c #F58F91",
"x c #FAC9CA",
"c c #FBD6D7",
"v c #FCDBDC",
"b c #FEEFF0",
"n c #FEF4F4",
"m c #FEF7F7",
"M c #FFFCFC",
"N c white",
/* pixels */
"                                                                ",
"                                                                ",
"                                                                ",
"                                              wwwwfwwfwf        ",
"                                              wwwwwwwwwww       ",
"                                              wwwwwwwwwww       ",
"                                              wwwwwwwwwww       ",
"                                              wwwwwwwwwww       ",
"                                     wwwwwwwwwwwwwwwwwwww       ",
"                                     wwwwwwwwwwwwwwwwwwwf       ",
"                                     wwwwwwwwwwwwwwwwwwwf       ",
"                                     wwwwwwwwwwwwwwwwwwwf       ",
"                                     wwwwwwwwwwwwwwwwwwwf       ",
"                           fwwwwwwwwwwwwwwwwwwwwwwwwwwwwf       ",
"                           wwwwwwwwwww   wwwwww                 ",
"                           wwwwwwwwwww   wwwwww                 ",
"                           wwwwwwwwwww   wwwwww                 ",
"                           wwwwwwwwwww   fwwwww                 ",
"                       wwwwwwwwwwwwwww   wwwwww                 ",
"                       wwwww             wwwwww                 ",
"                       wwwww             fwwwww                 ",
"                       wwwww             wwwwww                 ",
"                   fffwwwwww         ffffwwwwww                 ",
"                   wwwww             wwwwwwwwww                 ",
"                   wwwww             wwwwwf                     ",
"                   wwwww             wwwwww                     ",
"             @@@@@@wwwws@@@@@        wwwwww                     ",
"           #@@@@@@@*****@@@@@@  wwwwwwwwwwf                     ",
"           &@@@@@@@@@@@@@@@@@@  fwwwww                          ",
"          @@@@@@@@@@@@@@@@@@@@@@fwwwww                          ",
"          @@@@@@@@@@@@@@@@@@@@@@fwwwww                          ",
"       @@@@@@@@@@@@@@@@@@@@@@@@@iwwwww                          ",
"       @@@@@@@@@@@@@@@@@@@@@@@@@pwwwww                          ",
"       @@@@@@@@@@@@@@@@@@@@@@@@@uwwwww                          ",
"       @@@@@@@@@@@@@@@@@@@@@@@@@uwwwww#####                     ",
"       @@@@@@@@@@@@@@@@@@@@@@@@@awwwww@@@@@#%                   ",
"       @@@@@@@@@@@@@@@@@@@@@@@@@@>>>>>@@@@@@@                   ",
"       @@@@@@@@@@@@@@@@@@@@@@@@@@@@@@@@@@@@@@@                  ",
"       @@@@@@@@@@@@@@@@@@@@@@@@@@@@@@@@@@@@@@@                  ",
"       @@<mmmmk@@@@@@@@@@@@@@@@@@@@@@@@@@@@@@@@<<               ",
"       @@<NNNNl@@@@@@@@@@@@@@@@@@@@@@@@@@@@@@@@@@               ",
"       @@<NNNNl@@@@@@@@@@@@@@@@@@@@@@@@@@@@@@@@@@               ",
"       @@<NNNNl@@@@@@@@@@@@@@@@@@@@@@@@@@@@@@@@@@               ",
"       @@<vvvvj3333<@@@@@@@@@@@@@@@@@@@@@@@@@@@@@               ",
"       @@@@@@@cNNNN6@@@@@@@@@@@@@@@@@@@@@@@@@@@@@               ",
"       @@@@@@@cNNNN6@@@@@@@@@@@@@@@@@@@@@@@@@@@@@               ",
"       @@@@@@@cNNNN6@@@@@@@@@@@@@@@@@@@@@@@@@@@@@               ",
"          @@@@cNNNN6@@@@3zzzz5@@@@@@@@@@@@@@@@@@@               ",
"          @@@@xbbbb6@@@@4NNNNh@@@@@@@@@@@@@@@@@@@               ",
"           @@@@@@@@@@@@@4NNNNh@@@@@@@@@@@@@@@@@@@               ",
"           @@@@@@@@@@@@@4NNNNh@@@@@@@@@@@@@@@@@@@               ",
"             @@@@@@@@@@@4NNNNh@@@@@@@@@@@@@@@@@@@               ",
"                      @@@@@@@mNNNN<@@@@@@@@@@@@@@               ",
"                      @@@@@@@mNNNN<@@@@@@@@@@@@@@               ",
"                      @@@@@@@mNNNN<@@@@@@@@@@@@@@               ",
"                        @@@@@mNNNN<@@@@@@@@@@@                  ",
"                        #@@@@mNNNN<@@@@@@@@@@@                  ",
"                         @@@@<<<<<@@@@@@@@@@@@                  ",
"                          @@@@@@@@@@@@@@@@@@@                   ",
"                          >@@@@@@@@@@@@@@@@@@                   ",
"                            @@@@@@@@@@@@@@@                     ",
"                                                                ",
"                                                                ",
"                                                                "
};
