/* XPM */
static char *d8ace403700f4a209bdb4395cf2c4386bitleyQWMAtPLUus[] = {
/* columns rows colors chars-per-pixel */
"64 85 202 2 ",
"   c None",
".  c #140303",
"X  c #1A0504",
"o  c #1F0806",
"O  c #220605",
"+  c #2B0703",
"@  c #2C0806",
"#  c #2E0B09",
"$  c #270908",
"%  c #350A06",
"&  c #3A0B04",
"*  c #340C09",
"=  c #390C08",
"-  c #3D120E",
";  c #3D1105",
":  c #420D06",
">  c #410A08",
",  c #4B0F09",
"<  c #4E100A",
"1  c #41140B",
"2  c #52140B",
"3  c #531A0F",
"4  c #591A0F",
"5  c #451611",
"6  c #4A1712",
"7  c #581D11",
"8  c #43230B",
"9  c #4C2309",
"0  c #4B2C0A",
"q  c #58280C",
"w  c #68290E",
"e  c #6B2917",
"r  c #6D2A18",
"t  c #662515",
"y  c #743310",
"u  c #884918",
"i  c #9C5815",
"p  c #8D6A1E",
"a  c #946916",
"s  c #AB6617",
"d  c #AE6918",
"f  c #B26D18",
"g  c #B47A14",
"h  c #B47019",
"j  c #BC751A",
"k  c #8D6C25",
"l  c #9C6D22",
"z  c #8F7026",
"x  c #967927",
"c  c #C37B1B",
"v  c #CA7F1C",
"b  c #9C852C",
"n  c #9F8E32",
"m  c #BF8C26",
"M  c #BE9626",
"N  c #AE8A35",
"B  c #A09031",
"V  c #CD8213",
"C  c #C7801D",
"Z  c #CC831D",
"A  c #D2871D",
"S  c #D38A1D",
"D  c #DA8F1F",
"F  c #D79618",
"G  c #DD921F",
"H  c #E3971F",
"J  c #E7991F",
"K  c #E8981F",
"L  c #DBA21D",
"P  c #C98B21",
"I  c #D59322",
"U  c #DA9422",
"Y  c #DC9C25",
"T  c #D79B29",
"R  c #E79B20",
"E  c #E89E22",
"W  c #DBAC2C",
"Q  c #D7A42A",
"!  c #CBA63A",
"~  c #CEA736",
"^  c #D2AB37",
"/  c #DAB539",
"(  c #E5A023",
")  c #EAA423",
"_  c #E3A925",
"`  c #ECAA26",
"'  c #E2A42A",
"]  c #ECAD29",
"[  c #E1A82E",
"{  c #F0AE2A",
"}  c #EAB123",
"|  c #EEB32A",
" . c #EFB82D",
".. c #E4B02F",
"X. c #F0BB2E",
"o. c #F0B62C",
"O. c #E8A737",
"+. c #EFB533",
"@. c #EBBB33",
"#. c #EDB43A",
"$. c #E2B332",
"%. c #F1BC33",
"&. c #F1BE39",
"*. c #EAC02F",
"=. c #F0C42C",
"-. c #EEC336",
";. c #EDC53B",
":. c #EACD3D",
">. c #E6C438",
",. c #F2C534",
"<. c #F4CA36",
"1. c #FCC43A",
"2. c #F5CD3A",
"3. c #FFCB3C",
"4. c #F7C439",
"5. c #F6D23B",
"6. c #FED43D",
"7. c #F7DB3E",
"8. c #FADA3F",
"9. c #BB9D4F",
"0. c #C4A641",
"q. c #C3A858",
"w. c #E9AE4B",
"e. c #EEB541",
"r. c #E9B14D",
"t. c #EFBD4B",
"y. c #EAB352",
"u. c #EDBB53",
"i. c #EAB45A",
"p. c #EDBA5A",
"a. c #DFC544",
"s. c #ECC84A",
"d. c #FDCD43",
"f. c #F2C847",
"g. c #ECD849",
"h. c #FFD443",
"j. c #F7DD42",
"k. c #FCDC41",
"l. c #FDDB4B",
"z. c #F9D647",
"x. c #F2C254",
"c. c #EDD251",
"v. c #FDDD53",
"b. c #FEDC5B",
"n. c #FAD654",
"m. c #F7E143",
"M. c #F8E344",
"N. c #F7E44D",
"B. c #F8E64C",
"V. c #F6E354",
"C. c #F8E654",
"Z. c #F8E852",
"A. c #F8E65B",
"S. c #F8E95C",
"D. c #F7E85B",
"F. c #F2CA65",
"G. c #FCDC6A",
"H. c #FAD469",
"J. c #F5D270",
"K. c #F9E565",
"L. c #F9EA64",
"P. c #F7EA6C",
"I. c #FAEA6C",
"U. c #FAED6E",
"Y. c #F9ED6F",
"T. c #FAEC6D",
"R. c #F8E36A",
"E. c #FAE574",
"W. c #F9EB73",
"Q. c #FAED7B",
"!. c #F8E778",
"~. c #F6DB95",
"^. c #F7ED83",
"/. c #FAEB84",
"(. c #F7EE88",
"). c #FAEE8E",
"_. c #FAEE8D",
"`. c #FFE38B",
"'. c #FAF38F",
"]. c #FBF18F",
"[. c #FAF38F",
"{. c #FAEE94",
"}. c #FFE69B",
"|. c #FAF194",
" X c #FBF29B",
".X c #F7F296",
"XX c #FDEDA3",
"oX c #FFEAA9",
"OX c #FBF4A3",
"+X c #FCF7AE",
"@X c #FCF6AD",
"#X c #FFEEBB",
"$X c #FCF5B4",
"%X c #FDF7BA",
"&X c #FCF7B9",
"*X c #FDF7BA",
"=X c #FEF2C2",
"-X c #FDF8C3",
";X c #FDF8CC",
":X c #FDF9D5",
">X c #FDFBEA",
",X c #FFFEF5",
/* pixels */
"                                                                                                                                ",
"                                                                                                                                ",
"                                                                                                                                ",
"                                                        R R K J J J J J                                                         ",
"                                      J G A c c j c c c c c Z Z Z Z C c c c c c c c Z D H R                                     ",
"            W.L.S.S.            J j s d f h j j c c Z Z Z Z A A A A A Z Z Z C c c j j f d s f J             S.S.S.U.            ",
"         XL.S.S.S.S.S.          1.] Y C j j c c Z Z A S D D D D G D D D S A Z Z C c j j c U ` 1.          C.C.S.S.S.S.|.        ",
"      %XL.V.      C.C.C.        3.3.6.k...U [ f.x.u.u.y.r.r.w.w.w.y.i.i.i.p.p.u.t.#.] ` k.6.6.3.        Z.Z.C.      V.L.&X      ",
"       XS.        C.Z.V.        3.3.6.k.@.D ' M.C.I.).%X+X'.U.B.5. .E R ) ) | X.,.%.` | k.6.3.3.        N.Z.Z.        C.'.      ",
"    OXL.s.        Z.Z.          3.3.k.k.,.U @.M.C.I.).%X+X'.U.B.5. .E R ) ) ] X.,.,.`  .k.6.3.3.          B.N.        s.S.OX    ",
"    -XC.            R.Z.        3.3.B.B.<.H 2.M.C.I.).%X+X'.U.B.5. .E R ) ) | X.,.2.] X.k.6.6.3.        L.!.            Z.%X    ",
"    $XZ.              !.        3.3.C.C.5.J 7.M.C.I.).%X+X'.U.B.5. .E R ) ) | X.,.2.] ,.k.6.6.3.        Z.Q.            N.OX    ",
"    {.N.              <.K.      3.3.A.L.8.E j.M.C.I.).%X+X'.U.B.5. .E R ) ) | X.,.5.| ,.k.6.6.3.      Z.W.              B.(.    ",
"    E.B.              _  .j.j.  3.3.I.I.k.) m.M.C.I.).%X+X'.U.B.5. .E R ) ) | X.,.5.| <.k.6.6.3.  Z.I.j.2.              B.R.    ",
"    c.B.M.              R ` <.7.3.3.I.W.m.] m.M.C.I.).%X+X'.U.B.5. .E R ) ) | X.,.5.| 5.k.6.6.3.S.!.7.-.              M.B.g.    ",
"      B.M.                R ) ` 3.3.W.Q.M. .m.M.C.I.).%X+X'.U.B.5. .E R ) ) | X.,.5.o.5.k.6.6.3.2.5.|                 m.M.      ",
"      M.m.                    R 1.h.E./.M.,.m.M.C.I.).%X+X'.U.B.5. .E R ) ) | X.,.5.X.8.k.6.6.d.@.                    j.M.      ",
"      :.m.7.                    1.oXK.).M.5.M.M.C.I.).%X+X'.U.B.5. .E R ) ) | X.,.5.X.k.k.6.n.3.                    7.7.;.      ",
"        m.7.                    3.#Xb.{.B.k.M.M.C.I.).%X+X'.U.B.5. .E R ) ) | X.,.5.X.k.k.6.G.3.                    7.8.        ",
"        -.7.7.                    =Xl.OXC.m.M.M.C.I.).%X+X'.U.B.5. .E R ) ) | X.,.5.%.m.k.6.`.3.                  5.5.@.        ",
"          2.5.                    #Xh.OXD.m.M.M.C.I.).%X+X'.U.B.5. .E R ) ) | X.,.5.,.m.k.6.oX3.                  2.,.          ",
"          Q <.2.                  }.6.$XL.m.M.M.C.I.).%X+X'.U.B.5. .E R ) ) | X.,.5.,.m.k.6.=X                  <.,.Y           ",
"             .<.<.                G.6.&XW.m.M.M.C.I.).%X+X'.U.B.2. .E R ) ) | X.,.5.,.m.k.6.#X                ,.,.]             ",
"               .,.                h.6.&X(.m.M.M.C.I.).%X+X'.U.B.5. .E R ) ) | X.,.5.<.m.k.6.`.                ,.]               ",
"              U %.,.              6.l.XXOXm.M.M.C.I.).%X+X'.U.B.5. .E R ) ) | X.,.2.2.m.k.6.b.              ,. .U               ",
"                ( %.4.            6.b.E.-XM.M.M.C.I.).%X+X'.U.B.5. .E R ) ) | X.,.2.7.m.k.6.6.            &.X.H                 ",
"                  E &.              v.v.:XB.M.M.C.I.).%X+X'.U.B.5. .E R ) ) | X.,.2.j.m.k.6.6.            &.)                   ",
"                  A ] F.            6.k.>XA.M.M.C.I.).%X+X'.U.B.5. .E R ) ) | X.,.2.m.m.k.6.            F.] A                   ",
"                    R | x.          6.k.,XW.M.M.C.I.).%X+X'.U.B.5. .E R ) ) | X.,.2.m.m.k.6.          x.| (                     ",
"                      ` +.          6.k.:X|.M.M.C.I.).%X+X'.U.B.5. .E R ) ) | X.,.5.m.m.k.6.          +.|                       ",
"                        | e.        6.k.{.$XM.M.C.I.).%X+X'.U.B.5. .E R ) ) | X.,.7.m.m.k.6.        e. .                        ",
"                        ' ] `         b.K.;XB.M.C.I.).%X+X'.U.B.5. .E R ) ) | X.,.7.m.m.l.6.      ) ] ..                        ",
"                          ,.) )       b.l.;XL.M.C.I.).%X+X'.U.B.5. .E R ) ) | X.,.7.m.m.E.      ) ) 7.                          ",
"                            2.)       k.k.@X.XM.C.I.).%X+X'.U.B.5. .E R ) ) | X.,.5.m.m.v.      E 5.                            ",
"                            / | E       /.|.OXM.C.I.).%X+X'.U.B.5. .E R ) ) | X.,.5.m.V.8.    R ] $.                            ",
"                              7.R J     E.L.OXA.C.I.).%X+X'.U.B.5. .E R ) ) | X.,.5.m.{.    R J 2.                              ",
"                                5.R     k.C..X(.C.I.).%X+X'.U.B.5. .E R ) ) ] X.,.5.m.V.    R 1.                                ",
"                                [ { R      X(..XC.I.).%X+X'.U.B.5. .E R ) ) | X.,.5./.    E { '                                 ",
"                                  1.E E   B.S.'.W.I.).%X+X'.U.B.5. .E R ) ) | X.,.5.!.  ) ) 1.                                  ",
"                                    1.f.j.   X(.(.I.).%X+X'.U.B.5. .E R ) ) | X.,.G.m.M.A.d.                                    ",
"                                    H.R R ,.B.P.^.!.).%X+X'.U.B.5. .E R ) ) | X.,.G.m.J G ]                                     ",
"                                    ] T *.) j.L.^.^.).%X+X'.U.B.5. .E R ) ) | X.f.  ,.V V ` O.                                  ",
"                                    ,.S F %.  M.P.Q.(.%X+X'.U.B.2. .E R ) ) | X.,.  j._ F ,.                                    ",
"                                    7.2.5.7.    C.Q.Q.&X+X'.U.B.5. .E R ) ) | J.      M.m.m.                                    ",
"                                                  I.W.Q.+X'.U.B.5. .E R ) ) ~.                                                  ",
"                                                    !.W.Q.'.U.B.5. .E R ) F.                                                    ",
"                                                      n.j.W.T.B.2. .) } #.                                                      ",
"                                                          N.j.5.<.=.}                                                           ",
"                                                          ) G U I Z v                                                           ",
"                                                           .` E H G D                                                           ",
"                                                          z.,.| ) R H                                                           ",
"                                                        M.Q.XX<.X.] E                                                           ",
"                                                        M.Q.-X@XK.,.| )                                                         ",
"                                                        M.Q.-XOXQ.B.X.)                                                         ",
"                                                      m.M.Q.-XOXQ.B.X.R )                                                       ",
"                                                    m.m.M.Q.-XOXQ.B.X.R ) `                                                     ",
"                                                  k.k.m.M.Q.-XOXQ.B.X.R ) `                                                     ",
"                                                6.k.k.m.M.Q.-XOXQ.B.X.R ) `  .                                                  ",
"                                              6.6.k.k.m.M.Q.-XOXQ.B.X.R ) `  .,.8.                                              ",
"                                    r r r u 3.6.6.k.k.m.M.Q.-XOXQ.B.X.R ) `  .,.7.5.e r r r                                     ",
"                                  r t 4 < w s Z ] <.8.m.M.Q.%XOXQ.N.X.R R ( Y P h i 2 < 4 t e                                   ",
"                                  e 3 3 < < < < 3 w u l N 9.q.0.m h s i u y q 2 < < < < 3 3 7 r                                 ",
"                                  3 & & & & & : : : , , , , , , , , , , , , : : & & & & & & & r                                 ",
"                                e % + O o % % % % % % % % % % % % % % % % % % % % % % + O + % 3                                 ",
"                                > = + O o O O O O O O O O O O O O O O O O O O O O O O O O O O *                                 ",
"                                > = % @ O = = = = = & & & & & = = = = = & = & & = % = % O O O #                                 ",
"                                > = % @ O % % g L Q Q ! ^ / >.:.g.g.g.a./ ! ~ ^ W 1 % % O O O #                                 ",
"                                > = % @ O % g I k.k.m.m.M.M.M.M.j.5.<.,. .] ) E G W ; % O O O #                                 ",
"                                > = % @ O % F 8.k.m.M.M.M.M.M.m.7.2.,.X.| ` ) J J T 9 % O O O #                                 ",
"                                > = % @ O % F k.m.M.M.M.M.M.m.7.2.,.X.| ` ) R R R W 9 + O O O #                                 ",
"                                > = % @ O + F k.m.M.M.M.M.M.7.5.,.,. .] ) E J R E $.9 + O O O #                                 ",
"                                > = % @ O + F m.H.M.M.M.M.j.7.<.,.X.| ) E J R ( %.@.9 + O O O # -                               ",
"                            6 % > = % @ O + F M.m.M.M.M.m.7.2.,.X.| ` ) J R R E ) ;.9 + O O O # * * 6                           ",
"                          5 = + > = % @ O O F M.M.M.M.m.7.2.,.X.| ] ) R J R E ) ) ;.8 O O O O # % + 5                           ",
"                          5 + + > = % @ O O F M.M.M.M.7.5.<.,. .] ) E J R E E ) ) ;.8 O O O O # + + - 5                         ",
"                          - O O > = % @ O O F M.M.M.j.7.<.,.X.| ` E J R E E ) ) ` ;.8 O O O O # + O @ 1                         ",
"                        - # O O > = % @ O o 0 _ j.j.j.z.2.2.4.,.%.+.+.+.+.%.%.%.;.M o o O O O # @ O O -                         ",
"                        = o o o > = % @ O o o 0 a a p k z x x b b B n b z k k k p o o o O O O # @ o o * -                       ",
"                      * * * o . X X O @ O X X X X X X X X X X X X X X X X X X X X X X X O o X X . . $ * *                       ",
"                      > > = = * * $ . . . . . . . . . . . . . . . . . . . . . . . . . . . . o # * * = > >                       ",
"                        = = = = = * * * + @ @ @ @ @ @ @ @ @ @ @ @ @ @ @ @ @ @ @ @ @ @ @ # * * * = = = = =                       ",
"                        + + + + + + + + % % % % % % % % % % % % % % % % % % % % % % % % % + + + + + + + +                       ",
"                              O O O O O O O O O O O O O O O O O O O O O O O O O O O O O O O O O O O                             ",
"                                      . . . . . . . . . . . . . . . . . . . . . . . . . . .                                     ",
"                                                                                                                                "
};
