/* XPM */
static char *_d4190fc2e734c41f0f0e02fff2ac322zUMb0ppceGhjgDAR[] = {
/* columns rows colors chars-per-pixel */
"64 64 208 2 ",
"   c None",
".  c #1D0705",
"X  c #230705",
"o  c #2B0704",
"O  c #2F0905",
"+  c #320904",
"@  c #3B0C05",
"#  c #300A08",
"$  c #420D07",
"%  c #440D08",
"&  c #480F08",
"*  c #4B130A",
"=  c #4D1A0F",
"-  c #54190E",
";  c #56190B",
":  c #5B1D12",
">  c #571B10",
",  c #5F200C",
"<  c #5D2013",
"1  c #65290E",
"2  c #71310F",
"3  c #622314",
"4  c #642718",
"5  c #6D2C1B",
"6  c #652817",
"7  c #6E301D",
"8  c #7A3910",
"9  c #743915",
"0  c #753B2C",
"q  c #7F4536",
"w  c #884714",
"e  c #81501E",
"r  c #945919",
"t  c #AA6617",
"y  c #AE6A19",
"u  c #A76518",
"i  c #B36D19",
"p  c #B67019",
"a  c #BC751A",
"s  c #894A20",
"d  c #8A5D2A",
"f  c #926936",
"g  c #94692A",
"h  c #AA7225",
"j  c #C27B1B",
"k  c #8B5647",
"l  c #916257",
"z  c #BA8927",
"x  c #C7801D",
"c  c #CC841D",
"v  c #D38A1E",
"b  c #D98F1F",
"n  c #D08519",
"m  c #DB911E",
"M  c #DA9A1D",
"N  c #D5911C",
"B  c #E6991F",
"V  c #E2961F",
"C  c #C99528",
"Z  c #DC9422",
"A  c #D99828",
"S  c #C58725",
"D  c #E79B21",
"F  c #E89F22",
"G  c #DDA42A",
"H  c #CFB038",
"J  c #D7AA32",
"K  c #E5A326",
"L  c #E9A324",
"P  c #ECAA26",
"I  c #E9A52A",
"U  c #EDAE29",
"Y  c #E4A42B",
"T  c #F0AF2A",
"R  c #EFB52C",
"E  c #ECBA2E",
"W  c #E6B128",
"Q  c #F0BA2D",
"!  c #EBAD33",
"~  c #E8AC38",
"^  c #ECB333",
"/  c #EDBB32",
"(  c #ECB53A",
")  c #EFBA39",
"_  c #F1BE31",
"`  c #F6BE39",
"'  c #EEC335",
"]  c #F2C333",
"[  c #F4CA36",
"{  c #F2C53A",
"}  c #FBC53C",
"|  c #F5CD39",
" . c #FECB3C",
".. c #FCC637",
"X. c #F6D13A",
"o. c #FDD33D",
"O. c #F7D93F",
"+. c #FDD93F",
"@. c #D99E52",
"#. c #D6BD4D",
"$. c #DDBD50",
"%. c #E9AD4A",
"&. c #E4AC47",
"*. c #ECB440",
"=. c #ECBB45",
"-. c #ECBC4F",
";. c #E8B24A",
":. c #F1BF44",
">. c #E6AD54",
",. c #EDBB52",
"<. c #EAB359",
"1. c #EDB95B",
"2. c #EAB650",
"3. c #F0BD58",
"4. c #EFBC6B",
"5. c #E7BD66",
"6. c #EEC349",
"7. c #F4CD43",
"8. c #FDCB42",
"9. c #F3CC4C",
"0. c #FACA49",
"q. c #F1C648",
"w. c #F5D344",
"e. c #FED443",
"r. c #F6DC41",
"t. c #FBDD41",
"y. c #F4D349",
"u. c #FCD54C",
"i. c #F5DC4D",
"p. c #FDDA4D",
"a. c #E7C25F",
"s. c #F1C354",
"d. c #F7C956",
"f. c #F6D556",
"g. c #F6DC54",
"h. c #FDDB54",
"j. c #F6D45C",
"k. c #FED759",
"l. c #F6DB5C",
"z. c #FDDC5A",
"x. c #F7E244",
"c. c #F8E344",
"v. c #F7E44B",
"b. c #F8E54B",
"n. c #F7E554",
"m. c #F8E652",
"M. c #F8E851",
"N. c #F6E65B",
"B. c #F9E65C",
"V. c #F7E85D",
"C. c #F8E95B",
"Z. c #DCC870",
"A. c #EDC364",
"S. c #F2C867",
"D. c #EDD567",
"F. c #F3DA6A",
"G. c #FDDC6C",
"H. c #F8D865",
"J. c #E0CD70",
"K. c #F2C87A",
"L. c #FBD975",
"P. c #F7E363",
"I. c #FAE364",
"U. c #F7EA65",
"Y. c #F9E966",
"T. c #F6E36F",
"R. c #FBE46C",
"E. c #F7EB6D",
"W. c #FAEB69",
"Q. c #F7EB72",
"!. c #F9EB75",
"~. c #F6E57C",
"^. c #F9E57A",
"/. c #F7EA7B",
"(. c #F9ED7B",
"). c #F8E473",
"_. c #E0CF85",
"`. c #F8D889",
"'. c #F5E587",
"]. c #F7ED83",
"[. c #F9ED83",
"{. c #FAED83",
"}. c #F9EE8C",
"|. c #FCE58A",
" X c #FAF185",
".X c #F9F08F",
"XX c #FFE494",
"oX c #FAEE93",
"OX c #F9EE9B",
"+X c #FFE69B",
"@X c #FBF091",
"#X c #FAF19C",
"$X c #FFEAAA",
"%X c #FCEFA3",
"&X c #FBF5A2",
"*X c #FBF5A2",
"=X c #FCF3A8",
"-X c #FCF3A8",
";X c #FFEFBD",
":X c #FDF7B4",
">X c #FDF7B4",
",X c #FCF6BB",
"<X c #FDF8BE",
"1X c #FCF5C5",
"2X c #FCF8C1",
"3X c #FCF8C9",
"4X c #FEF8D4",
"5X c #FEFBE6",
/* pixels */
"        [.U.V.!.              %.a u y i p a a j j x x c c c v v v v v c c x x j j a a p i y u i D              XU.V.E.oX        ",
"    *XU.V.V.C.C.C.            } U Z x a a j j x c c v v b b b b m b b b v v c c x j j a j c Z P ..          n.n.C.C.C.V.!.#X    ",
"  3XU.N.      N.n.E.          }  .o.+.R Z Y =.6.,.,.2.2.2.%.%.%.%.>.<.<.<.1.1.,.-.*.! P _ o.o. . .        /.n.n.      F.N.!.1X  ",
"  #XC.        V.m.N.           . .o.t./ Z K r.m.Y.{.*X>X#X[.Y.v.| R K F K L U Q ] ] R U ] +.o. . .        V.m.M.[.        Y.@X  ",
"1XW.F.        n.M.).           . .t.t.] Z ^ r.m.Y.[.=X:X&X XW.b.X.R F D L L U Q ] [ R U [ +.o.o. .          m.b.          F.E.2X",
"1XC.            T.^.           . .b.b.[ D ' x.m.Y.[.=X:X&X XW.b.X.R F D L L U Q ] [ Q R [ +.o.o. .        }.~.            /.Y.<X",
">XM.              {.}.         . .n.n.X.D | x.m.Y.[.=X:X&X XW.b.X.R F D L L U Q ] [ Q R [ +.o.o. .        V.#X              V.-X",
"OXm.              y.l./.       . .V.V.+.L X.c.m.Y.[.=X:X&X XW.b.X.R F D L L U Q ] | Q Q | +.o.o. .      N.W.                N.oX",
"'.b.                q.w.B.    8. .Y.Y.t.P O.c.m.Y.[.=X:X&X XW.b.X.R F D L L U Q ] | _ Q X.+.o.o. .  {.!.i.^.                m.~.",
"'.b.}.              *.^ { w.o. . .E.E.c.U r.c.m.Y.[.=X:X&X XW.b.X.R F D L L U Q ] | ] ] o.+.o.o. .C.^.i.y.                Q.m.~.",
"  b.N.                ~ ^ R _  . .Q.(.c.R r.c.m.Y.[.=X:X&X XW.b.X.R F D L L U Q ] | ] ] o.+.o.o. .i.g.9.                  n.b.  ",
"  v.x.                    ~ P } e.).{.c._ r.c.m.Y.[.=X:X&X XW.b.X.R F D L L U Q ] | ] [ +.+.o.o. .{ f.                    x.v.  ",
"  i.x.                      I 0.G.R.}.c.[ c.c.m.Y.[.=X:X&X XW.b.X.R F D L L U Q ] | ] [ t.+.o.e.8./                     n.r.i.  ",
"  D.x.B.                      L.$XI.oXb.X.c.c.m.Y.[.=X:X&X XW.b.X.R F D L L U Q ] | ] | t.+.e.k.8.                      h.r.D.  ",
"    r.O.                      XX;Xz.OXm.t.c.c.m.Y.[.=X:X&X XW.b.X.R F D L L U Q ] | ] | t.+.e.G.u.                    w.X.y.    ",
"    q.X.F.                      1Xp.#Xn.c.c.c.m.Y.[.=X:X&X XW.b.X.R F D L L U Q ] | ] | t.+.u.|.G.                    u.| 6.    ",
"      | X.                      ;Xe.*XV.c.c.c.m.Y.[.=X:X&X XW.b.X.R F D L L U Q ] | [ X.t.+.h.$X`.                  w.[ 7.      ",
"      5.[ |                     +Xo.-XW.c.c.c.m.Y.[.=X:X&X XW.b.X.R F D L L U Q ] | [ X.t.+.h.;X                  | { =.        ",
"        R [ L.                  G.o.>X!.c.c.c.m.Y.[.=X:X&X XW.b.X.R F D L L U Q ] | [ X.t.+.h.;X                  9.E U         ",
"          / ]                   u.o.>X}.c.c.c.m.Y.[.=X:X&X XW.b.X.R F D L L U Q ] | [ X.t.+.p.XX                { R -.          ",
"          &./ '                 e.p.%X*Xb.c.c.m.Y.[.=X:X&X XW.b.X.R F D L L U Q ] | | X.t.+.e.k.              ] _ &.            ",
"            K E S.              k.z.^.,Xb.c.c.m.Y.[.=X:X&X XW.b.X.R F D L L U Q ] | X.+.t.+.o.e.              { K               ",
"              I )               +Xh.z.4Xm.c.c.m.Y.[.=X:X&X XW.b.X.R F D L L U Q ] | X.t.t.+.e.k.            :.P %.              ",
"              >.! s.              e.t.5XU.c.c.m.Y.[.=X:X&X XW.b.X.R F D L L U Q ] | O.c.t.+.e.            S.^ &.                ",
"                Y ^ s.            o.t.5X!.b.c.m.Y.[.=X:X&X XW.b.X.R F D L L U Q ] | O.c.t.+.e.          K.) I                   ",
"                  P ( s.          e.t.4X}.b.c.m.Y.[.=X:X&X XW.b.X.R F D L L U Q ] | r.c.t.+.o.          =.R                     ",
"                    ( (           z.t.-X*Xb.c.m.Y.[.=X:X&X XW.b.X.R F D L L U Q ] | r.c.t.t.e.        3./ -.                    ",
"                    *.! ^           p.(.,Xm.c.m.Y.[.=X:X&X XW.b.X.R F D L L U Q ] X.r.c.t.p.H.        ^ ^                       ",
"                      ^ R !         z.B.1XU.b.m.Y.[.=X:X&X XW.b.X.R F D L L U Q ] | r.c.v.I.        I _ =.                      ",
"                        ) ^ 1.      z.t.,X(.b.m.Y.[.=X:X&X XW.b.X.R F D L L U Q ] X.r.c.m.R.      1.W y.                        ",
"                        D.' I       z.p.*X#Xm.m.Y.[.=X:X&X XW.b.X.R F D L L U Q ] | r.c.v.z.      L X.                          ",
"                          -.W F       {.}.-Xn.m.Y.[.=X:X&X XW.b.X.R F D L L U Q ] | r.v.B.      D U a.                          ",
"                            [ F 4.    R.U.*XY.n.Y.{.=X:X&X XW.b.X.R F D L L U Q ] | r.Y.OX    4.B |                             ",
"                              | D     B.n..X}.V.Y.[.=X:X&X XW.b.X.R F D L L U Q ] | r.v.m.    F ..                              ",
"                              A.T F     #X}.@XU.Y.[.=X:X&X XW.b.X.R F D L L U Q ] | I.}.    K U 5.                              ",
"                                } F K.  b.V.{.!.E.[.=X:X&X XW.b.X.R F D L L U Q ] | B.(.  1.L `                                 ",
"                                  ` 9.^.  #X}.].Q.[.=X:X&X XW.b.X.R F D L L U Q ] f.).E.V.g.0.                                  ",
"                                  j.K I _ m.E.].(.{.=X:X&X XW.b.X.R F D L L U Q ] j.g.' F K ^                                   ",
"                                  ^ A E P G.W./.].}.=X:X&X XW.b.X.R F D L L U Q { F.9.K n N ! K.                                ",
"                                  / N M R   !.Q./.{.*X:X&X XW.b.X.R F D L L U Q {   r.E M M )                                   ",
"                                  H./ / 7.    V.Q.(.#X>X&X XW.b.X.R F D L L U s.      g.X.w.l.                                  ",
"                                                E.!.{.#X&X XW.b.X.R F B L L S.`.                                                ",
"                                                  /.!.{.@X XW.b.X.R F B L =.`.                                                  ",
"                                                    T.P.E.!.Y.b.X.E L L I A.                                                    ",
"                                                      l.P.V.n.r.| E P ( (                                                       ",
"                                                        F.| ' ' E W !                                                           ",
"                                                          K Z Z Z n @.                                                          ",
"                                                          R P F B m A                                                           ",
"                                                          7._ R L D V                                                           ",
"                                                        (.{.|.[ Q P F                                                           ",
"                                                        B.@X,X&XI.] R !                                                         ",
"                                                      I.B.@X<X&X!.b.Q L                                                         ",
"                                                    b.c.B.@X<X&X!.b.Q F I                                                       ",
"                                                  n.v.c.B.@X<X&X!.b.Q D F S.                                                    ",
"                                                  m.c.c.B.@X2X&X!.b.Q D L U                                                     ",
"                                                h.t.c.c.B.@X2X&X!.b.Q D L P )                                                   ",
"                                            h.p.t.t.c.c.B.@X<X&X!.b._ D L P R { F.                                              ",
"                                    5 5 s ` e.o.t.t.c.c.B.@X<X&X(.b._ F L P R ] y.r.h 5 5 5 5                                   ",
"                                  0 3 : 9 S G / [ o.t.c.B.}.,X&X!.b.Q F F K Y G A C w : : 3 6 7                                 ",
"                                q : - * ; 8 w r h z C H #.Z._.J.$.J C j a y u r w 8 , * - > < 4                                 ",
"                                3 * * * & & & * ; 1 9 e d f f g r w w 8 2 1 ; * & & % & * * * - k                               ",
"                              l * @ + + @ @ @ @ $ $ $ % % % % % % % % % $ $ $ @ @ @ @ @ @ + @ @ 6                               ",
"                              4 + O X . + + + + + + + + + + + + + + + + + + + + + + + O o X O + =                               ",
"                              $ @ O X . X X X X X X X X X X X X X X X X X X X X X X X X X X X o #                               "
};
