/* XPM */
static char *_370e89369af4d72eab3a6f6f87d12b2DcwopjuLmvMV13ga[] = {
/* columns rows colors chars-per-pixel */
"64 64 230 2 ",
"   c None",
".  c #010000",
"X  c #090202",
"o  c #0D0903",
"O  c #090908",
"+  c #110C04",
"@  c #1A0303",
"#  c #161102",
"$  c #1A1504",
"%  c #1D1709",
"&  c #2B0404",
"*  c #3A0506",
"=  c #231B04",
"-  c #271A05",
";  c #2C2204",
":  c #352904",
">  c #392D06",
",  c #362A07",
"<  c #3D2F0C",
"1  c #282624",
"2  c #3A3124",
"3  c #342F2E",
"4  c #5B0909",
"5  c #561C09",
"6  c #4E1C1C",
"7  c #551716",
"8  c #4E0607",
"9  c #6B0405",
"0  c #6D0B0C",
"q  c #620705",
"w  c #740D0B",
"e  c #770607",
"r  c #651806",
"t  c #6E1516",
"y  c #650D11",
"u  c #572C0C",
"i  c #4B3A0A",
"p  c #473507",
"a  c #6B3916",
"s  c #713612",
"d  c #6A2506",
"f  c #563725",
"g  c #5C3536",
"h  c #4F2527",
"j  c #692728",
"k  c #792626",
"l  c #603D29",
"z  c #5A4705",
"x  c #5E4A04",
"c  c #584609",
"v  c #5E4D16",
"b  c #664B0B",
"n  c #7A490C",
"m  c #6B5307",
"M  c #745D0B",
"N  c #765B05",
"B  c #674A1A",
"V  c #71421C",
"C  c #7C4516",
"Z  c #665318",
"A  c #735C13",
"S  c #795E14",
"D  c #7D640B",
"F  c #796318",
"G  c #584B2D",
"H  c #594B37",
"J  c #5F522D",
"K  c #714B27",
"L  c #6D522D",
"P  c #716136",
"I  c #5B4A45",
"U  c #464345",
"Y  c #6A5241",
"T  c #725B47",
"R  c #615951",
"E  c #715151",
"W  c #66625B",
"Q  c #706753",
"!  c #6C6562",
"~  c #726B6A",
"^  c #716A64",
"/  c #7A7573",
"(  c #7A7773",
")  c #77716D",
"_  c #840405",
"`  c #8C0405",
"'  c #840A0A",
"]  c #8E0C0C",
"[  c #930404",
"{  c #9C0505",
"}  c #950C0B",
"|  c #99080A",
" . c #861112",
".. c #921616",
"X. c #A30304",
"o. c #AB0303",
"O. c #A8090A",
"+. c #B50203",
"@. c #BC0202",
"#. c #B50A0B",
"$. c #BC0A0A",
"%. c #BA0708",
"&. c #AC1718",
"*. c #B41A1A",
"=. c #863A09",
"-. c #872A11",
";. c #8D3513",
":. c #882020",
">. c #942121",
",. c #B32020",
"<. c #C30000",
"1. c #86560A",
"2. c #99570B",
"3. c #8B4B14",
"4. c #854A1B",
"5. c #9D5412",
"6. c #975417",
"7. c #954F0B",
"8. c #A7560C",
"9. c #B45E0C",
"0. c #AA5A13",
"q. c #B15E15",
"w. c #82660B",
"e. c #85690B",
"r. c #8D6E08",
"t. c #856506",
"y. c #966C0B",
"u. c #8C710A",
"i. c #9E7D03",
"p. c #93760A",
"a. c #9D7D0B",
"s. c #967708",
"d. c #886C1B",
"f. c #8D7216",
"g. c #9C7D11",
"h. c #977A1A",
"j. c #A76B08",
"k. c #BA620C",
"l. c #B8640A",
"z. c #A07E01",
"x. c #A77D0C",
"c. c #AA6615",
"v. c #B96412",
"b. c #9A5D28",
"n. c #927929",
"m. c #85712B",
"M. c #A66223",
"N. c #C4660B",
"B. c #C76A09",
"V. c #D16E0B",
"C. c #D26E04",
"Z. c #C5720D",
"A. c #DB740B",
"S. c #D7740A",
"D. c #C66A12",
"F. c #CA721B",
"G. c #D27212",
"H. c #D57614",
"J. c #E37506",
"K. c #EC7A04",
"L. c #E3790B",
"P. c #EC7A0A",
"I. c #E3770A",
"U. c #F57E00",
"Y. c #F07C08",
"T. c #E57910",
"R. c #C67322",
"E. c #B64C4C",
"W. c #A25253",
"Q. c #846E4D",
"!. c #B67D44",
"~. c #827B7A",
"^. c #A48206",
"/. c #A4840A",
"(. c #AD8C0B",
"). c #AB8707",
"_. c #B38D04",
"`. c #B38F0A",
"'. c #B8830C",
"]. c #BD9504",
"[. c #B3910B",
"{. c #BC950A",
"}. c #BE990A",
"|. c #B79204",
" X c #A88916",
".X c #B79717",
"XX c #A78A22",
"oX c #BA9D2D",
"OX c #C59D05",
"+X c #C49E0A",
"@X c #CC9B05",
"#X c #C29E16",
"$X c #CDA406",
"%X c #CBA40B",
"&X c #C7A109",
"*X c #D1A605",
"=X c #D4AA05",
"-X c #DAAE05",
";X c #D4AB0A",
":X c #D0A50B",
">X c #DCB105",
",X c #DDB30B",
"<X c #DDB414",
"1X c #D0AA15",
"2X c #E2B504",
"3X c #E6B904",
"4X c #EBBC04",
"5X c #E5B909",
"6X c #EBBF0C",
"7X c #E4B609",
"8X c #F0BF02",
"9X c #E6BB11",
"0X c #E68624",
"qX c #D8B83B",
"wX c #EFC003",
"eX c #EFC10A",
"rX c #F4C303",
"tX c #F9C602",
"yX c #FECA00",
"uX c #F4C409",
"iX c #EFC211",
"pX c #F3C512",
"aX c #8E804C",
"sX c #B19A43",
"dX c #8F837A",
"fX c #AFA474",
"gX c #B08E6D",
"hX c #D58E49",
"jX c #8A8987",
"kX c #968B81",
/* pixels */
"                                                                                                                                ",
"                                                                          1 O                                                   ",
"                                                                        2 /.c U                                                 ",
"        ~ 3.a                                                   / H % c *XtXz i.tX5X[.F Q                                       ",
"        H.U.U.q.                                            J {.[.> a.wXyXtXz i.yXyXyXyXtX$Xm.                                  ",
"      ) U.U.U.Y.~.                                      G %XtXrXw.$XyXyXyXtXz i.yXyXyXyXyXyXyX:Xm.3 1                           ",
"      ! Y.U.U.U.f                                      X4XyXyXyXyXyXyXyXyXtXz i.yXyXyXyXrX`.i + - < 1                           ",
"      jXU.U.U.U.5.                                W 1XtXyXyXyXyXyX>Xm e.2XyX4XrXyXyX].i + ; u.2XtXz.% 2                         ",
"        T.U.U.U.L.                              R <XtXyXyXyXyXyXr.= . $ |.yXyXyXyXyXtX2X5XtXyXyXyXz.: D XX                      ",
"        9.U.U.U.U.I                           ( 9XtXyXyXyXyXyXN # . . - ].yXyXyXyXyXyXyXyXyXyXyXyXz.: ^.-Xh.                    ",
"        V v.9.D.P.q.                          1XtXyXyXyXyXyXe.$ . . . c =XyXyXyXyXyXyXyXyXyXyXyXyXi.> /.yX$XZ                   ",
"    ~ C G.K.K.P.v.u 3                       S 4XyXyXyXyXyX{.; . . . . s.rXyXyXyXyXyXyXyXyXyXyXyXyXi.> ).yXyX<XW                 ",
"  f P.U.U.U.U.U.U.U.0./                   ^ 6XyXyXyXyXyXrX> . . . . . _.yXyXyXyXyXyXyX$XM ^.yXyXyXi.> (.yXyX4X#X                ",
"  I.U.U.U.U.U.U.U.U.U.3.                   XrXyXyXyXyXyXm + . . . . i *XyXyXyXyXyXyX^.D +XtXyXyXyX2X+X-XyXyXyX;XH               ",
"R U.U.U.U.U.U.U.U.U.U.K.dX              ( eXyXyXyXyXyXyX4Xp X . . . ^.tXyXyXyXyXyX^.u.*XyXyXyXyXyXyXyXyXyXyXyX4X.X              ",
"Y U.U.U.U.U.U.U.U.U.U.U.u               Z 4XyXyXyXyXyXyXyXrXb o . ; OXyXyXyXyXyX{.p.$XtXyXyXyXyXyXyXyXyXyXyXyXyX9X              ",
"T U.U.U.U.U.U.U.U.U.U.U.8.H.kX          *XtXyXyXyXyXtXx > > ; o . a.rXyXyXyXyX5Xe._.tXyXyXyXyXyXyXyXyXyXyXyXyXyX-Xv             ",
"Y U.U.U.U.U.U.U.U.U.U.U.G.A.6.          uXyXyXyXyXyX+X= . . . . - OXyXyXyXyXyXN i.tXyXyXyXyXyXyXyXyXyXyXyXyXyXyX4X(.            ",
"H U.U.U.U.U.U.U.U.U.U.U.L.G.I.    jXH < 4XyXyXyXyXyXa.$ . . . . ^.rXyXyXyXyX{.a.-XyXyXyXyXyXyXyXyXyXyXyXyXyXyXyXtX9X            ",
"! U.U.U.U.U.U.U.U.U.U.U.L.G.U.A 5XuXwXb 4XyXyXyXyXyX}.= . . . x >XyXyXyXyXyXN ^.tXyXyXyXyXyXyXyXyXyXyXyXyXyXyXyXyXpX            ",
"  Y.U.U.U.U.U.U.U.U.U.U.V.I.U.M rXyXyXD 8XyXyXyXyXyXr.M M - i $XtXyXyXyXyXOX/.-XyXtXrX7X4XyXyXyXyXyXyXyXyXyXyXyXyXiX            ",
"  D.U.U.U.U.U.U.U.U.U.U.5.K.Y.r.tXyXtXe.8XyXyXyXyX&X;X4XwX3X/.(.4XyXyXyXyXN /.a.i : c M (.4XyXyXyXyXyXyXyXyXyXyXyX6X(           ",
"  a Y.U.U.U.U.U.U.U.U.U.a K.A.f.S P fXF 8XyX*XtXyXu.3XyXyXyXrX5XtXyXyXyXtXz , s.*X2X3X4XrXyXyXyXyXyXyXyXyXyXyXyXyX6X(           ",
"  dXP.U.U.U.U.U.U.U.U.A.q.U.V         Z 4XyX> [.tX[.5XyXyXyXyXyXyXyXyXyXyX3X2XrXyXyXyXyXyXyXyXyXyXyXyXyXyXyXyXyXyXiX            ",
"    V U.U.U.U.U.U.U.Y.s K.5.          G 4XyX= $ /.3Xt.-XyXyXyXyXyXyXyXyXyXyXyXyXyXyXyXyXyXyXyXyXyXyXyXyXyXyXyXtX:XF             ",
"      C Y.U.U.Y.K.8.a 5.K             ^ rXyX- . $ M *X`.u.2XyXyXyXyXyXyXyXyXyXyXyXyXyXyXyXyXyXyXyX2Xr.t.yXyXyX-Xw..X            ",
"        gXL K Q.                        eXyXp X . + : (.>X`.=XtXyXyXyXyXyXyXyXyXyXyXyXyXyXyXtX&Xm ; = N yXyX4X}.}.v             ",
"                                        /.rXp.+ . . . = p s.2XtXyXyXyXyXyXyXyXyXyXyXyXtX=Xe.> = o . = s.yXyX=Xw.%X+X XW         ",
"                                        P 4X2X$ . . . . X $ ; p D [.,XrXtXtXtX3X%Xs.z > ; # . . . . p *XyXtX,Xx.r.tX4X,Xh.      ",
"                                          ,XtXp X . . . . . . X + = ; : : : : : ; $ o . . . . . . . x tXyX4X+X%Xe.yXyXtX5X<Xv   ",
"                                          F 4X{.$ . . . . . . . . X . . . . . . . . . . . . . . . = p.yXyX=Xa.<XQ.n.7XyXyXtX;X~ ",
"                                            %X4Xi X . . . @ 9 ` [ [ [ e & X & 4 9 8 & X . . . . . z 2XyXtX`.i Z     d.yXyXyXtX/ ",
"                                            aX6X$X= . . @ _ +.<.<.<.<.@.X.[ X.o.+.o.{ 9 & . . . - i.yXyX*X2.B.N.b.J ;XyXyXtXf.  ",
"                                              d.3X/.$ . 8 o.<.<.<.<.<.<.<.<.<.<.<.<.<.+.9 @ . o m 4XyXyX@X7.U.U.A.c.s.yXrXa.    ",
"                                                f.>Xu.# * X.<.<.<.<.<.<.<.<.<.<.<.<.<.<.{ * X z =XyX8X{.1.3.V.U.U.K.l.t.g.      ",
"                                                  f.=Xs.- 9 +.<.<.<.<.<.<.<.<.<.<.<.<.<._ & x *XrX{.j.S.B.B.k.9.U.U.K.l.B       ",
"                                                    d.*X).u 4 o.<.<.<.<.<.<.<.<.<.<.@._ 5 t.=X>X'.Z.C.U.U.U.A.k.8.Y.U.K.v.I     ",
"                                                      sX#X|.y.d q [ +.@.<.<.@.+.{ 9 r 1._.2X=X'.Z.J.U.U.U.U.U.J.9.8.Y.U.J.l     ",
"                                                          e.`._.).j.=.d r r r =.2.x._.>X*Xx.c.Z.K.U.U.U.U.U.U.U.J.k.N.P.G.T     ",
"                                                          F +X(./.}.OX|._._._.OX>XtXtX*X'.7.5.K.U.U.U.U.U.U.U.U.U.K.D.hX        ",
"                                                          g.2X$Xp..XqXoXXXg.a.s.s.^.(.d.c.k.k.U.U.U.U.U.U.U.U.U.U.K.G.          ",
"                                                          g.3XyX/.            v s.OX`.n.b.v.J.U.U.U.U.U.U.U.U.U.U.J.3.          ",
"                                                          p.3XyX/.            A OXyX-XoX  F.K.U.U.U.U.U.U.U.U.U.K.G.            ",
"                                                          u.3XyX).            A OXyX>X    R.A.U.U.U.U.U.U.U.U.K.G.!.            ",
"                                                        y b }.=Xw.-.] 7       Z OXyX-Xh.  L c.U.U.U.U.U.U.U.J.0.M.              ",
"                                                    g 6 4 5 n n u w ' w j k :.-.2.j.y.;.:.k s 9.K.U.U.U.U.K.N.0.6.              ",
"                                                  /  ._ ` ` _ _ ` ` X.X.' { o.{ e 0 w [ o.X.t K R.V.U.U.U.K.S.A.4.              ",
"                                                    $.<.<.<.<.<.<.<.<.+.o.@.@.+.o.X.X.o.+.@...I   M.F.N.J.K.J.v.                ",
"                                                    $.<.<.<.<.<.<.<.<.@.o.@.<.<.<.<.<.<.<.<...        4.F.0XR.                  ",
"                                                    $.<.<.<.<.<.<.<.<.@.o.@.<.<.<.<.<.<.<.<.] 6                                 ",
"                                                    #.<.<.<.<.<.<.<.<.@.X.+.<.<.<.<.<.<.<.<.] 7                                 ",
"                                                    O.@.<.<.<.<.<.<.<.@.X.+.<.<.<.<.<.<.<.<.} 7                                 ",
"                                              E.E.E.| o.X.o.@.<.<.<.<.@.X.+.<.<.<.<.<.<.<.<.[ 4                                 ",
"                                        W.' o.@.<.<.@.{ e [ X.+.@.<.<.@.{ +.<.<.<.<.<.+.o.X._ t                                 ",
"                                      E O.<.<.<.<.<.<.<.<.@._ [ +.<.<.<.{ o.<.<.+.o.o.X.` e _ >.                                ",
"                                      w @.<.<.<.<.<.<.<.<.<.<.+.@.<.<.<.[ o.<.+.[ e [ +.<.<.<.<.@.} k                           ",
"                                      O.<.<.<.<.<.<.<.<.<.<.<.<.<.<.<.<.[ o.+.` X.<.<.<.<.<.<.<.<.<.+...                        ",
"                                      %.<.<.<.<.<.<.<.<.<.<.<.<.<.<.<.<.` o.<.<.<.<.<.<.<.<.<.<.<.<.<.X.7                       ",
"                                      #.<.<.<.<.<.<.<.<.<.<.<.<.<.<.@.+._ o.<.<.<.<.<.<.<.<.<.<.<.<.<.@.&.                      ",
"                                      } @.<.<.<.<.<.<.<.@.@.%.%.%.#.| 0 0 X.<.<.<.<.<.<.<.<.<.<.<.<.<.<.*.                      ",
"                                      6 #.%.%.%.%.%.%.O.] 0 6 I         h } @.<.<.<.<.<.<.<.<.<.<.<.<.<.&.                      ",
"                                          ~.~ ~ ~.                        g ..%.@.<.<.<.<.<.<.<.<.<.<.<.*.                      ",
"                                                                              g  .%.@.<.<.<.<.<.<.<.<.@.,.                      ",
"                                                                                    j [ @.<.<.<.<.<.{ k                         "
};
