/* XPM */
static char *d4af1ffcb1df42eae65a223ef78f1244IBOik7FRCP46fF0y[] = {
/* columns rows colors chars-per-pixel */
"63 64 205 2 ",
"   c None",
".  c #010001",
"X  c #0A0402",
"o  c #0F0A02",
"O  c #0C0B0B",
"+  c #120102",
"@  c #140D03",
"#  c #150B09",
"$  c #1D0D0F",
"%  c #1C1306",
"&  c #1A1409",
"*  c #1F1112",
"=  c #171617",
"-  c #2B0505",
";  c #270708",
":  c #3B0709",
">  c #3B0C0D",
",  c #211504",
"<  c #241A06",
"1  c #2A1E07",
"2  c #39100F",
"3  c #3F0F11",
"4  c #221514",
"5  c #251C1B",
"6  c #2B1B1A",
"7  c #281915",
"8  c #361614",
"9  c #391415",
"0  c #301D17",
"q  c #2A2206",
"w  c #2D2208",
"e  c #3C2E07",
"r  c #36230C",
"t  c #3B2B0A",
"y  c #372608",
"u  c #2B2216",
"i  c #26211C",
"p  c #2B231C",
"a  c #332915",
"s  c #3B2619",
"d  c #382716",
"f  c #3F3116",
"g  c #221E21",
"h  c #2C1F21",
"j  c #262020",
"k  c #2C2323",
"l  c #2C2823",
"z  c #302923",
"x  c #36312B",
"c  c #400F0F",
"v  c #4D0C0B",
"b  c #480709",
"n  c #5C0709",
"m  c #54090A",
"M  c #5C0B0B",
"N  c #580507",
"B  c #56130C",
"V  c #441112",
"C  c #620708",
"Z  c #630A0B",
"A  c #6B090C",
"S  c #72090A",
"D  c #770507",
"F  c #472C0C",
"G  c #562B0F",
"H  c #5E2F0F",
"J  c #43330A",
"K  c #4A3A09",
"L  c #483806",
"P  c #59330E",
"I  c #543B0C",
"U  c #57350C",
"Y  c #492A16",
"T  c #522C13",
"R  c #5B2D11",
"E  c #522E1B",
"W  c #423415",
"Q  c #4B3615",
"!  c #5B3214",
"~  c #55371A",
"^  c #6A3714",
"/  c #753F13",
"(  c #713E19",
")  c #56430B",
"_  c #5C450C",
"`  c #5E4A0B",
"'  c #564507",
"]  c #5C4913",
"[  c #534318",
"{  c #644E0A",
"}  c #66510B",
"|  c #6B540C",
" . c #6E590C",
".. c #735B0C",
"X. c #765B0D",
"o. c #624D12",
"O. c #784219",
"+. c #665212",
"@. c #6D5510",
"#. c #755E11",
"$. c #7C630D",
"%. c #8C0607",
"&. c #840907",
"*. c #8B0907",
"=. c #8B070A",
"-. c #85090A",
";. c #8D090A",
":. c #850709",
">. c #940706",
",. c #9C0505",
"<. c #940609",
"1. c #970809",
"2. c #A40606",
"3. c #AB0506",
"4. c #A50609",
"5. c #AA0508",
"6. c #A20806",
"7. c #B40404",
"8. c #BC0203",
"9. c #C30000",
"0. c #8B4A14",
"q. c #844614",
"w. c #924D13",
"e. c #9B5214",
"r. c #AA5B0F",
"t. c #B15E0E",
"y. c #A55A15",
"u. c #AE5D13",
"i. c #A05716",
"p. c #B25E14",
"a. c #846B0C",
"s. c #8A6E0C",
"d. c #81650D",
"f. c #8D720B",
"g. c #94750C",
"h. c #95780D",
"j. c #9B7A0D",
"k. c #856C12",
"l. c #856B18",
"z. c #8E7110",
"x. c #997A11",
"c. c #BD6512",
"v. c #B56215",
"b. c #905220",
"n. c #C96A0F",
"m. c #D7730D",
"M. c #DC770E",
"N. c #C66A11",
"B. c #CB6D11",
"V. c #C16612",
"C. c #D06F13",
"Z. c #D37111",
"A. c #D97411",
"S. c #D67815",
"D. c #EE7D06",
"F. c #E1770E",
"G. c #E4790B",
"H. c #EC7B0A",
"J. c #F57E01",
"K. c #F27D08",
"L. c #E37910",
"P. c #9C800E",
"I. c #9F8112",
"U. c #9C8018",
"Y. c #A5850E",
"T. c #AA870D",
"R. c #AC8B0D",
"E. c #B18D0E",
"W. c #AF900B",
"Q. c #B4920D",
"!. c #BB960D",
"~. c #BE9B0C",
"^. c #C39D0C",
"/. c #C89F0E",
"(. c #C39E10",
"). c #C6A10D",
"_. c #CBA40C",
"`. c #CFA90C",
"'. c #D3AB0B",
"]. c #D8AE0F",
"[. c #DAB007",
"{. c #DCB10A",
"}. c #D7B00B",
"|. c #E2B707",
" X c #EABE07",
".X c #E3B609",
"XX c #E6BA09",
"oX c #EBBC0A",
"OX c #E7BD06",
"+X c #E6BB10",
"@X c #EEC107",
"#X c #EEC208",
"$X c #F4C505",
"%X c #F8C704",
"&X c #F6C904",
"*X c #FBC903",
"=X c #FDC901",
"-X c #FEC900",
";X c #FDCA00",
":X c #FECA00",
">X c #FFCA00",
",X c #FECB00",
"<X c #FCC902",
"1X c #FECA00",
"2X c #F1C208",
/* pixels */
"                                                                            =                                                 ",
"                                                                          O .                                                 ",
"                                                                      g 1 +X.                                                 ",
"        p 0.^                                                   i [ . $.;X$X. %X$X{.h.W                                       ",
"        A.J.J.u.                                            Q '.T.@ '.;X;X$X. ;X;X;X;X;X%XT.u                                 ",
"      5 J.J.J.K.i                                       W XX;X$X_ %X;X;X;X$X. ;X;X;X;X;X;X;X;XU.= X O                         ",
"      k K.J.J.J.Y                                     T.;X;X;X;X;X;X;X;X;X%X. ;X;X;X;X;XoX$.# X I # =                         ",
"      j J.J.J.J.e.                                p |.;X;X;X;X;X;X'.e I.;X;X|.;X;X;Xs.@ X ) `.;X;X& 4                         ",
"        L.J.J.J.G.                              u 2X;X;X;X;X;X;X{ . . 1 ;X;X;X;X;X;X&X'.;X;X;X;X;X@ | T.                      ",
"        t.J.J.J.J.d                           i  X;X;X;X;X;X;XL . . . y ;X;X;X;X;X;X;X;X;X;X;X;X;X@ ..;Xh.                    ",
"        ( c.t.N.G.p.                          `.;X;X;X;X;X;X` . . . . d.;X;X;X;X;X;X;X;X;X;X;X;X;X@ #.;X;Xo.                  ",
"    i q.m.D.K.G.v.G 4                       #.;X;X;X;X;X;XT.. . . . . {.;X;X;X;X;X;X;X;X;X;X;X;X;Xo $.;X;X;Xu                 ",
"  Y K.J.J.J.J.J.J.J.u.=                   u *X;X;X;X;X;X2X. . . . . X ;X;X;X;X;X;X;X;XP.J ;X;X;X;Xo k.;X;X;X^.                ",
"  G.J.J.J.J.J.J.J.J.J.0.                  Y.;X;X;X;X;X;XJ . . . . . | ;X;X;X;X;X;X;X{ z.;X;X;X;X;X)._.;X;X;X;Xs               ",
"0 J.J.J.J.J.J.J.J.J.J.K.i               i ;X;X;X;X;X;X;X#X% . . . .  X;X;X;X;X;X;X` R.;X;X;X;X;X;X;X;X;X;X;X;X~.              ",
"E J.J.J.J.J.J.J.J.J.J.J.F k             | ;X;X;X;X;X;X;X;X*Xt . . e ;X;X;X;X;X;Xs.h.;X;X;X;X;X;X;X;X;X;X;X;X;X;Xi             ",
"~ J.J.J.J.J.J.J.J.J.J.J.y.S.k           [.;X;X;X;X;X&Xy q q q . . {.;X;X;X;X;X'.K ;X;X;X;X;X;X;X;X;X;X;X;X;X;X;X)             ",
"E J.J.J.J.J.J.J.J.J.J.J.Z.F.w.          ;X;X;X;X;X;XQ.. . . . . t ;X;X;X;X;X;X% %X;X;X;X;X;X;X;X;X;X;X;X;X;X;X;XQ.            ",
"s J.J.J.J.J.J.J.J.J.J.J.G.C.D.    l W r ;X;X;X;X;X;Xs.. . . . . XX;X;X;X;X;Xf.T.;X;X;X;X;X;X;X;X;X;X;X;X;X;X;X;XOX            ",
"6 J.J.J.J.J.J.J.J.J.J.J.G.Z.J.+.$X;X;X_ ;X;X;X;X;X;XQ.. . . . s.,X;X;X;X;X;X% ;X;X;X;X;X;X;X;X;X;X;X;X;X;X;X;X;X;X            ",
"  D.J.J.J.J.J.J.J.J.J.J.B.G.J...;X;X;X..;X;X;X;X;X;XX.a.a.@ +.;X;X;X;X;X;XY.Q.;X;X%XoX{.*X;X;X;X;X;X;X;X;X;X;X;X;Xl           ",
"  N.J.J.J.J.J.J.J.J.J.J.w.K.K.f.;X;X%X$.;X;X;X;X;XQ.oX;X;X;Xg.R.;X;X;X;X;X< XX} # < '  .[.;X;X;X;X;X;X;X;X;X;X;X;Xz           ",
"  ! K.J.J.J.J.J.J.J.J.J.R J.m.l.o.a   ..;X;X^.;X;X .;X;X;X;X;XOX;X;X;X;X%X. J _.;X;X;X;X;X;X;X;X;X;X;X;X;X;X;X;X;Xx           ",
"    H.J.J.J.J.J.J.J.J.A.c.J.T         o.;X*X. (.;XR.$X;X;X;X;X;X;X;X;X;X;X%X;X;X;X;X;X;X;X;X;X;X;X;X;X;X;X;X;X;X%X            ",
"    T J.J.J.J.J.J.J.D.R K.0.          f ;X;X. . E.*X) $X;X;X;X;X;X;X;X;X;X;X;X;X;X;X;X;X;X;X;X;X;X;X;X;X;X;X;X.Xo.            ",
"      ! K.J.J.K.D.w.E u.d             i ;X;XX . .  .*Xj...$X;X;X;X;X;X;X;X;X;X;X;X;X;X;X;X;X;X;X;XE., ;X;X;X;X_ _.            ",
"          s s p                         $X;Xy . . . @ _.*Xh.{.;X;X;X;X;X;X;X;X;X;X;X;X;X;X;X$X$.X . < ;X;X;XT.#XJ             ",
"                                        j.;Xh.. . . . . % R.%X;X;X;X;X;X;X;X;X;X;X;X;X$XT.1 . . . . | ;X;X;X_ ^..XQ.u         ",
"                                        a ;X@X. . . . . . . . < ..!..X$X$X$X@X{.T.{ @ . . . . . . . _.;X;X@X/.) ;X;X*Xh.g     ",
"                                          }.;Xw . . . . . . . . . . . . . . . . . . . . . . . . . . *X;X;XT.%Xo.;X;X;X;X$X_   ",
"                                          W ;X'.. . . . . . . . X X . . . . . . . . . . . . . . . } ;X;X;X| OX  a '.;X;X;X;X6 ",
"                                            ~.*XJ . . . . - 4.9.9.9.8.=.+ + m :.*.n + . . . . . . 2X;X;X.Xr r     a ;X;X;X*Xh ",
"                                            5 $X$XX . . - 9.9.9.9.9.9.9.9.9.9.9.9.9.9.A . . . . $.;X;X;XP J.J.p.4 $X;X;X;X+.  ",
"                                              Q ;X).. . S 9.9.9.9.9.9.9.9.9.9.9.9.9.9.9.b . . < *X;X;X*X/ J.J.J.L._ *X;X$.    ",
"                                                ] *XT.. - 9.9.9.9.9.9.9.9.9.9.9.9.9.9.9.*.. @ $X;X;X_.U / p.J.J.J.K.P #.      ",
"                                                  ] *X!.. S 9.9.9.9.9.9.9.9.9.9.9.9.9.9.- % $X;X].U M.J.J.n.O.J.J.J.K.T       ",
"                                                    W $XOX< : 8.9.9.9.9.9.9.9.9.9.9.3.; { *X*Xj.p.J.J.J.J.J.G.H K.J.J.K.0     ",
"                                                      i R.;X!., : %.7.8.9.9.8.5.S ; K XX;X$Xk.B.J.J.J.J.J.J.J.K.R K.J.J.^     ",
"                                                          t ^.*X@XR.{ e 1 w J $._.%X;X;Xa.O.v.J.J.J.J.J.J.J.J.J.K.e.F.Z.g     ",
"                                                          I.XX| ..{.*X;X;X;X;X;X;X;X$Xa.G.G J.J.J.J.J.J.J.J.J.J.J.F.          ",
"                                                          x.;X;Xa.    p W I [ K _ ..l.s H.r.J.J.J.J.J.J.J.J.J.J.J.N.          ",
"                                                          h.;X;Xs.             .;X;X!.  O.G.J.J.J.J.J.J.J.J.J.J.J.!           ",
"                                                          g.;X;Xf.             .;X;X^.    H.J.J.J.J.J.J.J.J.J.J.N.            ",
"                                                          s.;X;Xf.             .;X;X^.    i.J.J.J.J.J.J.J.J.J.N.              ",
"                                                    h 3 A I Q.R.F 6.&.2   7 8 @.;X;X^.9 6 i G.J.J.J.J.J.J.K.^ b.              ",
"                                                  j v m N m v v m Z =.1.v 1.7.;.B B Z 8.3.-.# A.J.J.J.J.J.u.K.y.              ",
"                                                  * 9.9.9.9.9.9.9.9.9.3.5.8.5.1.%.%.>.,.5.8.2   / D.J.J.J.J.J.T               ",
"                                                    9.9.9.9.9.9.9.9.9.7.5.9.9.9.9.9.9.9.9.9.9     k ! V.H.G.0.                ",
"                                                    8.9.9.9.9.9.9.9.9.7.2.9.9.9.9.9.9.9.9.9.:                                 ",
"                                                    8.9.9.9.9.9.9.9.9.8.,.9.9.9.9.9.9.9.9.9.V                                 ",
"                                                    7.9.9.9.9.9.9.9.9.8.,.9.9.9.9.9.9.9.9.9.v                                 ",
"                                                    <.8.9.9.9.9.9.9.9.8.<.9.9.9.9.9.9.9.9.9.M                                 ",
"                                          M 3.8.9.8.7.&.v %.9.9.9.9.9.8.%.9.9.9.9.9.9.9.9.9.Z                                 ",
"                                        5.9.9.9.9.9.9.9.9.8.n <.9.9.9.8.=.9.9.9.9.9.7.-.C C S                                 ",
"                                      M 9.9.9.9.9.9.9.9.9.9.9.5.8.9.9.8.-.9.9.8.S m 6.9.9.9.9.9.5.v                           ",
"                                      5.9.9.9.9.9.9.9.9.9.9.9.9.9.9.9.9.D 9.2.Z 9.9.9.9.9.9.9.9.9.9.=.                        ",
"                                      8.9.9.9.9.9.9.9.9.9.9.9.9.9.9.9.9.D 9.9.9.9.9.9.9.9.9.9.9.9.9.9.c                       ",
"                                      8.9.9.9.9.9.9.9.9.9.9.9.9.9.9.9.9.D 9.9.9.9.9.9.9.9.9.9.9.9.9.9.2.                      ",
"                                      6.9.9.9.9.9.9.9.9.9.9.9.9.9.7.<.Z D 9.9.9.9.9.9.9.9.9.9.9.9.9.9.8.                      ",
"                                      c 8.9.9.9.9.9.8.4.=.Z 3 7         3 9.9.9.9.9.9.9.9.9.9.9.9.9.9.9.*                     ",
"                                          k # 4 k                         2 3.9.9.9.9.9.9.9.9.9.9.9.9.9.$                     ",
"                                                                              V 2.9.9.9.9.9.9.9.9.9.9.7.                      ",
"                                                                                  6 A 7.9.9.9.9.9.8.A 5                       ",
"                                                                                        5 8 9 8 6                             "
};
