/* XPM */
static char *result[] = {
/* columns rows colors chars-per-pixel */
"64 63 84 1 ",
"  c #000066",
". c #000072",
"X c #000073",
"o c #00017E",
"O c navy",
"+ c #00028B",
"@ c #0009DC",
"# c #000FDE",
"$ c #0017E2",
"% c #081AFD",
"& c #0A1DFC",
"* c #002BE3",
"= c #002DE5",
"- c #173CEB",
"; c #0F2FF7",
": c #0027FC",
"> c #012BFB",
", c #1D2EF6",
"< c #0035F2",
"1 c #0137F2",
"2 c #0130FA",
"3 c #0637FB",
"4 c #003BF8",
"5 c #0539F9",
"6 c #073FFA",
"7 c #093CF8",
"8 c #1F38F2",
"9 c #2535E5",
"0 c #3C48DC",
"q c #3E5DDE",
"w c #1C41E9",
"e c #1749EF",
"r c #0844F7",
"t c #0E47F5",
"y c #0B48F5",
"u c #0948F6",
"i c #0B4AF7",
"p c #084CF6",
"a c #0D4DF7",
"s c #0340FA",
"d c #0745F9",
"f c #0446FB",
"g c #0447FB",
"h c #0341FC",
"j c #0042FF",
"k c #0045FF",
"l c #0444FC",
"z c #0947F9",
"x c #0D45F9",
"c c #0749FB",
"v c #094AF8",
"b c #174DF1",
"n c #104BF4",
"m c #1A4DF0",
"M c #095EF7",
"N c #085FF7",
"B c #0951F9",
"V c #2242E6",
"C c #2349E7",
"Z c #2648E4",
"A c #2741E9",
"S c #384BE1",
"D c #2754E7",
"F c #2A58E5",
"G c #2B58E5",
"H c #2155E9",
"J c #2454EA",
"K c #2155EC",
"L c #2B54EA",
"P c #2A55EA",
"I c #2B55EA",
"U c #2A55EB",
"Y c #2B55EB",
"T c #3259E5",
"R c #0263FD",
"E c #0264FC",
"W c #4D5BD4",
"Q c #4159DE",
"! c #4A66D5",
"~ c #4964D6",
"^ c #4360D8",
"/ c #4B67DC",
"( c #586ED0",
") c None",
/* pixels */
"))))))))))))))))))))))))))))))))))))))))))))))))))))))))))))))))",
"))))))))))))))))))))))))))))))))))))))))))))))))))))))))))))))))",
"))))))))))))))))))))))))))))))))))))))))))))))))))))))))))))))))",
")))))W3REEEEEEEEEEEEEEEEEEEEEEEEEEEEEEEEEEEEEEEEEEEEEEEE6S))))))",
"))))ArH)))))))))))))))))))))))))))))))))))))))))))))))))Fu;)))))",
"))))l)))))))))))))))))))))))))))))))))))))))))))))))))))))f/))))",
")))Jb)),ikkkkkkkkkkkkkkkkkkkkkkkkkkkkkkkkkkkkkkkkkkkkkg8))Dm))))",
")))cY))s$@@@@@@@@@@@@@@@@@@@@@@@@@@@@@@@@@@@@@@@@@@@@@#4()!j))))",
")))cY)K<O                                             .*x)!j))))",
")))cU)K<O                                             .*x)!j))))",
")))cP)K<O                                             .*x)!j))))",
")))cP)K<O                                             .*x)!j))))",
")))cU)K<O                                             .*x)!j))))",
")))cY)K<O                                             .*x)!j))))",
")))cY)K<O                                             .*x)!j))))",
")))cY)K<O                                             .*x)!j))))",
")))cY)K<O                                             .*x)!j))))",
")))cU)K<O                                             .*x)!j))))",
")))cI)K<O                                             .*x)!j))))",
")))cY)K<O                                             .*x)!j))))",
")))cY)K<O                                             .*x)!j))))",
")))cY)K<O                                             .*x)!j))))",
")))cY)K<O                                             .*x)!j))))",
")))cY)K<O                                             .*x)!j))))",
")))cI)K<O                                             .*x)!j))))",
")))cY)K<O                                             .*x)!j))))",
")))cU)K<O                                             .*x)!j))))",
")))cY)K<O                                             .*x)!j))))",
")))cY)K<O                                             .*x)!j))))",
")))cY)K<O                                             .*x)!j))))",
")))cU)K<O                                             .*x)!j))))",
")))cP)K<O                                             .*x)!j))))",
")))cP)K<O                                             .*x)!j))))",
")))cU)K<O                                             .*x)!j))))",
")))cY)K<O                                             .*x)!j))))",
")))cY)K<O                                             .*x)!j))))",
")))cY)K<O                                             .*x)!j))))",
")))cY)K<O                                             .*x)!j))))",
")))cU)K<O                                             .*x)!j))))",
")))cI)K<O                                             .*x)!j))))",
")))cY)K<O                                             .*x)!j))))",
")))cY)K<O                                             .*x)!j))))",
")))cY)K<O                                             .*x)!j))))",
")))cY)K<O                                             .*x)!j))))",
")))cY)K<O                                             .*x)!j))))",
")))cI)K<O                                             .*x)!j))))",
")))cY)K<O                                             .*x)!j))))",
")))cU)K<O                                             .*x)!j))))",
")))cY)K<O                                             .*x)!j))))",
")))cY)K<O                                             .*x)!j))))",
")))cY)K<O                                             .*x)!j))))",
")))cU)K<O                                             .*x)!j))))",
")))cP)K<O                                             .*x)!j))))",
")))cP)K<O                                             .*x)!j))))",
")))cU)G1+XXXXXXXXXXXXXXXXXXXXXXXXXXXXXXXXXXXXXXXXXXXXXo=e)!j))))",
")))vL))72:::::::::::::::::::::::::::::::::::::::::::::>5))~h))))",
")))^z)))Z---------------------------------------------w)))nT))))",
"))))tq)))))))))))))))))))))))))))))))))))))))))))))))))))Qd)))))",
"))))0yB&%%%%%%%%%%%%%%%%%%%%%%%%%%%%%%%%%%%%%%%%%%%%%%%%ap9)))))",
"))))))VMNNNNNNNNNNNNNNNNNNNNNNNNNNNNNNNNNNNNNNNNNNNNNNNNC)))))))",
"))))))))))))))))))))))))))))))))))))))))))))))))))))))))))))))))",
"))))))))))))))))))))))))))))))))))))))))))))))))))))))))))))))))",
"))))))))))))))))))))))))))))))))))))))))))))))))))))))))))))))))"
};
