/* XPM */
static char *result[] = {
/* columns rows colors chars-per-pixel */
"64 64 115 2 ",
"   c #000066",
".  c #000067",
"X  c #000068",
"o  c #000069",
"O  c #00006A",
"+  c #00006B",
"@  c #00006D",
"#  c #000182",
"$  c #000183",
"%  c #000185",
"&  c #000B8E",
"*  c #000B90",
"=  c #000B91",
"-  c #000A95",
";  c #000A96",
":  c #000A97",
">  c #010EA7",
",  c #0115B0",
"<  c #000ADC",
"1  c #000ADD",
"2  c #000BDD",
"3  c #0018E2",
"4  c #001BE4",
"5  c #0834E7",
"6  c #0835E7",
"7  c #0734E8",
"8  c #103CEA",
"9  c #092EF8",
"0  c #0136F1",
"q  c #0A31F7",
"w  c #083CF1",
"e  c #113AF7",
"r  c #103DF6",
"t  c #0045FE",
"y  c #0145FE",
"u  c #0447FD",
"i  c #0A45F8",
"p  c #0B46FA",
"a  c #0848FD",
"s  c #0948FD",
"d  c #114AF5",
"f  c #164BF6",
"g  c #164DF5",
"h  c #1A46F9",
"j  c #085FFA",
"k  c #1952F7",
"l  c #1C58F7",
"z  c #1551F8",
"x  c #1451F9",
"c  c #1551F9",
"v  c #1650F8",
"b  c #1E52F8",
"n  c #1E55F8",
"m  c #2F50ED",
"M  c #3050ED",
"N  c #3454ED",
"B  c #2D4BF8",
"V  c #364FFB",
"C  c #2057F3",
"Z  c #2551F6",
"A  c #2556F4",
"S  c #2654F6",
"D  c #2358F2",
"F  c #265DF7",
"G  c #2D5BF3",
"H  c #2B5EF3",
"J  c #2E59F5",
"K  c #295FF4",
"L  c #2D5CF8",
"P  c #2C5CF9",
"I  c #315FF6",
"U  c #3252FA",
"Y  c #3751FB",
"T  c #0463FA",
"R  c #0565FA",
"E  c #1566F5",
"W  c #1E60F6",
"Q  c #1A68F5",
"!  c #2269F4",
"~  c #3B69F1",
"^  c #4E6CEC",
"/  c #5663EB",
"(  c #536FEA",
")  c #566CEE",
"_  c #4D75ED",
"`  c #4E77EF",
"'  c #4B78ED",
"]  c #5476ED",
"[  c #5279EF",
"{  c #577CEF",
"}  c #446EF1",
"|  c #4F74F0",
" . c #4E76F1",
".. c #5075F0",
"X. c #5E7EF0",
"o. c #6077EC",
"O. c #657EED",
"+. c #5F80EB",
"@. c #6380EE",
"#. c #6381EF",
"$. c #6987EC",
"%. c #6D8BEA",
"&. c #7881E5",
"*. c #708CEA",
"=. c #7790EA",
"-. c #6380F0",
";. c #7585F6",
":. c #7782F9",
">. c #848FED",
",. c #8691EF",
"<. c #839BEF",
"1. c #9AA1E6",
"2. c #91A1E8",
"3. c #98A6E9",
"4. c None",
/* pixels */
"4.4.4.4.4.4.4.4.4.4.4.4.4.4.4.4.4.4.4.4.4.4.4.4.4.4.4.4.4.4.4.4.4.4.4.4.4.4.4.4.4.4.4.4.4.4.4.4.4.4.4.4.4.4.4.4.4.4.4.4.4.4.4.4.",
"4.4.4.4.4.4.4.4.4.4.4.4.4.4.4.4.4.4.4.4.4.4.4.4.4.4.4.4.4.4.4.4.4.4.4.4.4.4.4.4.4.4.4.4.4.4.4.4.4.4.4.4.4.4.4.4.4.4.4.4.4.4.4.4.",
"4.4.4.4.4.4.4.4.4.4.4.4.4.4.4.4.4.4.4.4.4.4.4.4.4.4.4.4.4.4.4.4.4.4.4.4.4.4.4.4.4.4.4.4.4.4.4.4.4.4.4.4.4.4.4.4.4.4.4.4.4.4.4.4.",
"4.4.4.4.4.1.h R T T T T T T T T T T T T T T T T T T T T T T T T T T T T T T T T T T T T T T T T T T T T T T T T j S >.4.4.4.4.4.",
"4.4.4.4.) d ' 4.4.4.4.4.4.4.4.4.4.4.4.4.4.4.4.4.4.4.4.4.4.4.4.4.4.4.4.4.4.4.4.4.4.4.4.4.4.4.4.4.4.4.4.4.4.4.4.4.,._ g B 4.4.4.4.",
"4.4.4.4.p 4.4.4.4.4.4.4.4.4.4.4.4.4.4.4.4.4.4.4.4.4.4.4.4.4.4.4.4.4.4.4.4.4.4.4.4.4.4.4.4.4.4.4.4.4.4.4.4.4.4.4.4.4.<.v 3.4.4.4.",
"4.4.4.{ ~ 4.4.:.l y t t t t t t t t t t t t t t t t t t t t t t t t t t t t t t t t t t t t t t t t t t t t u n ;.4.4.] } 4.4.4.",
"4.4.4.c -.4.4.i 3 1 < < < < < < < < < < < < < < < < < < < < < < < < < < < < < < < < < < < < < < < < < < < < 2 4 f 4.4.*.a 4.4.4.",
"4.4.4.x #.4.` 0 $ X X X X X X X X X X X X X X X X X X X X X X X X X X X X X X X X X X X X X X X X X X X X X + * 5 L 4.*.a 4.4.4.",
"4.4.4.x #.4. .0 # .                                                                                         o & 7 P 4.*.a 4.4.4.",
"4.4.4.x #.4. .0 # .                                                                                         o & 7 P 4.*.a 4.4.4.",
"4.4.4.x #.4. .0 # .                                                                                         o & 7 P 4.*.a 4.4.4.",
"4.4.4.x #.4. .0 # .                                                                                         o & 7 P 4.*.a 4.4.4.",
"4.4.4.x #.4. .0 # .                                                                                         o & 7 P 4.*.a 4.4.4.",
"4.4.4.x #.4. .0 # .                                                                                         o & 7 P 4.*.a 4.4.4.",
"4.4.4.x #.4. .0 # .                                                                                         o & 7 P 4.*.a 4.4.4.",
"4.4.4.x #.4. .0 # .                                                                                         o & 7 P 4.*.a 4.4.4.",
"4.4.4.x #.4. .0 # .                                                                                         o & 7 P 4.*.a 4.4.4.",
"4.4.4.x #.4. .0 # .                                                                                         o & 7 P 4.*.a 4.4.4.",
"4.4.4.x #.4. .0 # .                                                                                         o & 7 P 4.*.a 4.4.4.",
"4.4.4.x #.4. .0 # .                                                                                         o & 7 P 4.*.a 4.4.4.",
"4.4.4.x #.4. .0 # .                                                                                         o & 7 P 4.*.a 4.4.4.",
"4.4.4.x #.4. .0 # .                                                                                         o & 7 P 4.*.a 4.4.4.",
"4.4.4.x #.4. .0 # .                                                                                         o & 7 P 4.*.a 4.4.4.",
"4.4.4.x #.4. .0 # .                                                                                         o & 7 P 4.*.a 4.4.4.",
"4.4.4.x #.4. .0 # .                                                                                         o & 7 P 4.*.a 4.4.4.",
"4.4.4.x #.4. .0 # .                                                                                         o & 7 P 4.*.a 4.4.4.",
"4.4.4.x #.4. .0 # .                                                                                         o & 7 P 4.*.a 4.4.4.",
"4.4.4.x #.4. .0 # .                                                                                         o & 7 P 4.*.a 4.4.4.",
"4.4.4.x #.4. .0 # .                                                                                         o & 7 P 4.*.a 4.4.4.",
"4.4.4.x #.4. .0 # .                                                                                         o & 7 P 4.*.a 4.4.4.",
"4.4.4.x #.4. .0 # .                                                                                         o & 7 P 4.*.a 4.4.4.",
"4.4.4.x #.4. .0 # .                                                                                         o & 7 P 4.*.a 4.4.4.",
"4.4.4.x #.4. .0 # .                                                                                         o & 7 P 4.*.a 4.4.4.",
"4.4.4.x #.4. .0 # .                                                                                         o & 7 P 4.*.a 4.4.4.",
"4.4.4.x #.4. .0 # .                                                                                         o & 7 P 4.*.a 4.4.4.",
"4.4.4.x #.4. .0 # .                                                                                         o & 7 P 4.*.a 4.4.4.",
"4.4.4.x #.4. .0 # .                                                                                         o & 7 P 4.*.a 4.4.4.",
"4.4.4.x #.4. .0 # .                                                                                         o & 7 P 4.*.a 4.4.4.",
"4.4.4.x #.4. .0 # .                                                                                         o & 7 P 4.*.a 4.4.4.",
"4.4.4.x #.4. .0 # .                                                                                         o & 7 P 4.*.a 4.4.4.",
"4.4.4.x #.4. .0 # .                                                                                         o & 7 P 4.*.a 4.4.4.",
"4.4.4.x #.4. .0 # .                                                                                         o & 7 P 4.*.a 4.4.4.",
"4.4.4.x #.4. .0 # .                                                                                         o & 7 P 4.*.a 4.4.4.",
"4.4.4.x #.4. .0 # .                                                                                         o & 7 P 4.*.a 4.4.4.",
"4.4.4.x #.4. .0 # .                                                                                         o & 7 P 4.*.a 4.4.4.",
"4.4.4.x #.4. .0 # .                                                                                         o & 7 P 4.*.a 4.4.4.",
"4.4.4.x #.4. .0 # .                                                                                         o & 7 P 4.*.a 4.4.4.",
"4.4.4.x #.4. .0 # .                                                                                         o & 7 P 4.*.a 4.4.4.",
"4.4.4.x #.4. .0 # .                                                                                         o & 7 P 4.*.a 4.4.4.",
"4.4.4.x #.4. .0 # .                                                                                         o & 7 P 4.*.a 4.4.4.",
"4.4.4.x #.4. .0 # .                                                                                         o & 7 P 4.*.a 4.4.4.",
"4.4.4.x #.4. .0 # .                                                                                         o & 7 P 4.*.a 4.4.4.",
"4.4.4.x #.4. .0 # .                                                                                         o & 7 P 4.*.a 4.4.4.",
"4.4.4.x #.4.[ 0 % O O O O O O O O O O O O O O O O O O O O O O O O O O O O O O O O O O O O O O O O O O O O O @ = 6 I 4.*.a 4.4.4.",
"4.4.4.z @.4.%.w > ; - - - - - - - - - - - - - - - - - - - - - - - - - - - - - - - - - - - - - - - - - - - - : , 8 ..4.*.s 4.4.4.",
"4.4.4.K | 4.4.Z r 9 9 9 9 9 9 9 9 9 9 9 9 9 9 9 9 9 9 9 9 9 9 9 9 9 9 9 9 9 9 9 9 9 9 9 9 9 9 9 9 9 9 9 9 9 q e J 4.4.+.b 4.4.4.",
"4.4.4.2.k 4.4.4.( M m m m m m m m m m m m m m m m m m m m m m m m m m m m m m m m m m m m m m m m m m m m m N ^ 4.4.4.H =.4.4.4.",
"4.4.4.4.G $.4.4.4.4.4.4.4.4.4.4.4.4.4.4.4.4.4.4.4.4.4.4.4.4.4.4.4.4.4.4.4.4.4.4.4.4.4.4.4.4.4.4.4.4.4.4.4.4.4.4.4.4.X.A 4.4.4.4.",
"4.4.4.4.&.C W Y V V V V V V V V V V V V V V V V V V V V V V V V V V V V V V V V V V V V V V V V V V V V V V V V U F D / 4.4.4.4.",
"4.4.4.4.4.4.o.Q E E E E E E E E E E E E E E E E E E E E E E E E E E E E E E E E E E E E E E E E E E E E E E E E ! O.4.4.4.4.4.4.",
"4.4.4.4.4.4.4.4.4.4.4.4.4.4.4.4.4.4.4.4.4.4.4.4.4.4.4.4.4.4.4.4.4.4.4.4.4.4.4.4.4.4.4.4.4.4.4.4.4.4.4.4.4.4.4.4.4.4.4.4.4.4.4.4.",
"4.4.4.4.4.4.4.4.4.4.4.4.4.4.4.4.4.4.4.4.4.4.4.4.4.4.4.4.4.4.4.4.4.4.4.4.4.4.4.4.4.4.4.4.4.4.4.4.4.4.4.4.4.4.4.4.4.4.4.4.4.4.4.4.",
"4.4.4.4.4.4.4.4.4.4.4.4.4.4.4.4.4.4.4.4.4.4.4.4.4.4.4.4.4.4.4.4.4.4.4.4.4.4.4.4.4.4.4.4.4.4.4.4.4.4.4.4.4.4.4.4.4.4.4.4.4.4.4.4."
};
